# xmcd
#
# Track frame offsets:
#	150
#	17395
#	32445
#	53132
#	69417
#	88135
#	104010
#	120277
#	136450
#	148905
#	170350
#	188635
#
# Disc length: 2741 seconds
#
# Revision: 0
# Processed by: cddbd v1.4PL0 Copyright (c) Steve Scherf et al.
# Submitted via: EasyCDDAExtractor 4.6.9.1
#
DISCID=9d0ab30c
DTITLE=Finis Tasby - Jump Children
DYEAR=1998
DGENRE=Blues
TTITLE0=Mercy's Blues
TTITLE1=Georgia Slop
TTITLE2=I Just Got To Know
TTITLE3=Jump Children
TTITLE4=Cold, Cold Feeling
TTITLE5=It's Your Own Fault, Baby
TTITLE6=I Missed You Bad
TTITLE7=Ah´w Baby
TTITLE8=The Jive
TTITLE9=The Sun Is Shining
TTITLE10=Please Accept My Love
TTITLE11=Job For Christmas
EXTD=
EXTT0=
EXTT1=
EXTT2=
EXTT3=
EXTT4=
EXTT5=
EXTT6=
EXTT7=
EXTT8=
EXTT9=
EXTT10=
EXTT11=
PLAYORDER=
